<svg id="bootstrap-5-logo-icon" xmlns="http://www.w3.org/2000/svg" xmlns:xlink="http://www.w3.org/1999/xlink" width="72.538" height="57.803" viewBox="0 0 72.538 57.803">
  <defs>
    <linearGradient id="linear-gradient" x1="0.148" y1="0.025" x2="1.021" y2="0.895" gradientUnits="objectBoundingBox">
      <stop offset="0" stop-color="#9013fe"/>
      <stop offset="1" stop-color="#6610f2"/>
    </linearGradient>
  </defs>
  <path id="Tracé_1" data-name="Tracé 1" d="M8,7.554A7.229,7.229,0,0,1,15.066,0H57.478a7.229,7.229,0,0,1,7.064,7.554,40.614,40.614,0,0,0,1.269,12.653c1.235,4,3.317,6.528,6.727,6.853v3.684c-3.41.324-5.491,2.853-6.727,6.853a40.614,40.614,0,0,0-1.269,12.653A7.229,7.229,0,0,1,57.478,57.8H15.066A7.229,7.229,0,0,1,8,50.249,40.656,40.656,0,0,0,6.732,37.6C5.5,33.6,3.41,31.068,0,30.743V27.06c3.41-.324,5.5-2.853,6.732-6.853A40.656,40.656,0,0,0,8,7.554Z" fill="url(#linear-gradient)"/>
  <path id="Tracé_2" data-name="Tracé 2" d="M201.276,117.51c0,5.412-4.038,8.693-10.739,8.693H177.9V95.46h12.572c5.588,0,9.254,3.025,9.254,7.669a6.866,6.866,0,0,1-5.609,6.69v.171C198.4,110.459,201.276,113.42,201.276,117.51ZM182.789,122.3v-10.12h6.46c4.627,0,7.028,1.7,7.028,5.028s-2.335,5.092-6.744,5.092Zm0-22.946h6.5c3.536,0,5.544,1.577,5.544,4.432,0,3.046-2.335,4.75-6.569,4.75h-5.479Z" transform="translate(-152.696 -81.936)" fill="#fff" fill-rule="evenodd"/>
</svg>
