<svg xmlns="http://www.w3.org/2000/svg" xmlns:xlink="http://www.w3.org/1999/xlink" width="108.714" height="93.844" viewBox="0 0 108.714 93.844">
  <defs>
    <linearGradient id="linear-gradient" x1="0.148" y1="0.025" x2="1.021" y2="0.895" gradientUnits="objectBoundingBox">
      <stop offset="0" stop-color="#9013fe"/>
      <stop offset="1" stop-color="#6610f2"/>
    </linearGradient>
  </defs>
  <g id="bootstrap-5-logo-icon" transform="translate(0 19.761) rotate(-12)">
    <path id="Tracé_3" data-name="Tracé 3" d="M10.484,9.9A9.472,9.472,0,0,1,19.74,0H75.311a9.472,9.472,0,0,1,9.256,9.9c-.173,4.947.05,11.353,1.663,16.579s4.346,8.554,8.814,8.979v4.826c-4.468.425-7.2,3.739-8.814,8.979S84.394,60.893,84.567,65.84a9.472,9.472,0,0,1-9.256,9.9H19.74a9.472,9.472,0,0,1-9.256-9.9c.173-4.947-.052-11.353-1.663-16.579S4.468,40.707,0,40.282V35.456c4.468-.425,7.2-3.739,8.821-8.979S10.657,14.845,10.484,9.9Z" transform="translate(0 0)" fill="url(#linear-gradient)"/>
    <path id="Tracé_4" data-name="Tracé 4" d="M30.629,28.892c0,7.091-5.291,11.39-14.071,11.39H0V0H16.473C23.794,0,28.6,3.963,28.6,10.048a9,9,0,0,1-7.349,8.766v.225C26.855,19.653,30.629,23.533,30.629,28.892ZM6.406,35.174V21.914h8.465c6.063,0,9.209,2.233,9.209,6.588s-3.059,6.672-8.836,6.672Zm0-30.065h8.522c4.633,0,7.264,2.066,7.264,5.807,0,3.991-3.059,6.224-8.608,6.224H6.406Z" transform="translate(33.024 17.72)" fill="#fff" fill-rule="evenodd"/>
  </g>
</svg>
