<svg xmlns="http://www.w3.org/2000/svg" width="243.659" height="243.659" viewBox="0 0 243.659 243.659">
  <path id="Icon_awesome-wordpress-simple" data-name="Icon awesome-wordpress-simple" d="M122.392.562a121.83,121.83,0,1,0,121.83,121.83A121.966,121.966,0,0,0,122.392.562ZM12.844,122.392a108.783,108.783,0,0,1,9.481-44.556l52.269,143.15A109.63,109.63,0,0,1,12.844,122.392ZM122.392,231.94a109.12,109.12,0,0,1-30.949-4.47l32.865-95.5,33.65,92.256a14.805,14.805,0,0,0,.786,1.523A109.667,109.667,0,0,1,122.392,231.94ZM137.473,71.057C144.056,70.713,150,70.025,150,70.025c5.895-.688,5.207-9.383-.688-9.039,0,0-17.734,1.375-29.18,1.375-10.758,0-28.836-1.375-28.836-1.375-5.895-.344-6.583,8.7-.688,9.039,0,0,5.6.688,11.5,1.032l17.046,46.767-23.973,71.87L55.288,71.057c6.583-.344,12.527-1.032,12.527-1.032,5.895-.688,5.207-9.383-.688-9.039,0,0-17.734,1.375-29.18,1.375-2.063,0-4.47-.049-7.074-.147a109.547,109.547,0,0,1,165.5-20.632,13.879,13.879,0,0,0-1.425-.1c-10.758,0-18.373,9.383-18.373,19.453,0,9.039,5.207,16.653,10.758,25.692,4.176,7.27,9.039,16.653,9.039,30.212,0,9.383-3.586,20.239-8.351,35.419l-10.906,36.5-39.644-117.7Zm39.988,146,33.454-96.727c6.239-15.622,8.351-28.1,8.351-39.251a80.622,80.622,0,0,0-.737-11.25,109.555,109.555,0,0,1-41.068,147.227Z" transform="translate(-0.563 -0.563)" fill="#0059fc"/>
</svg>
